<svg xmlns="http://www.w3.org/2000/svg" width="1792" height="1792" id="graduation">
  <path d="m1379.778 848 14 245.778q3.11 53.666-63.778 99.555-66.889 45.89-182.778 72.723T896 1292.889q-135.333 0-251.222-26.833-115.89-26.834-182.778-72.723-66.889-45.889-63.778-99.555l14-245.778 446.445 140.778q17.11 5.444 37.333 5.444 20.222 0 37.333-5.444zM1792 596q0 17.889-17.111 24.111L903.778 893.89q-3.111.778-7.778.778t-7.778-.778l-507.11-160.222q-33.445 26.444-55.223 86.722-21.778 60.278-26.445 138.833 49 28 49 84.778 0 53.667-45.11 83.222L348.443 1464q1.556 10.889-6.222 19.444-7 8.556-18.666 8.556H174.222q-11.666 0-18.666-8.556-7.778-8.555-6.223-19.444l45.111-336.778q-45.11-29.555-45.11-83.222 0-56.778 50.555-86.333 8.555-161 76.222-256.667l-259-80.889Q0 613.89 0 596t17.111-24.111L888.222 298.11q3.111-.778 7.778-.778t7.778.778l871.11 273.778Q1792 578.11 1792 596Z"></path>
</svg>
