<?xml version="1.0" encoding="UTF-8"?>
<svg version="1.1" xmlns="http://www.w3.org/2000/svg" width="250" height="250">
<path d="M0 0 C82.5 0 165 0 250 0 C250 82.5 250 165 250 250 C167.5 250 85 250 0 250 C0 167.5 0 85 0 0 Z " fill="#FEFEFE" transform="translate(0,0)"/>
<path d="M0 0 C1.17232178 0.26288818 2.34464355 0.52577637 3.55249023 0.79663086 C7.34863931 1.65110905 11.14329273 2.51194203 14.9375 3.375 C15.90236328 3.59407013 15.90236328 3.59407013 16.88671875 3.81756592 C44.13449131 10.00706775 44.13449131 10.00706775 56.82983398 13.66113281 C64.4644202 15.85111898 72.19317524 17.62027325 79.9375 19.375 C79.9375 20.035 79.9375 20.695 79.9375 21.375 C75.56357492 22.33647958 71.1893784 23.29671224 66.81494141 24.25585938 C65.33114479 24.5813747 63.84741898 24.90721301 62.36376953 25.23339844 C48.67213421 28.24315779 48.67213421 28.24315779 42.1484375 29.6015625 C41.4167334 29.75447754 40.6850293 29.90739258 39.93115234 30.06494141 C37.9375 30.375 37.9375 30.375 33.9375 30.375 C33.9375 43.575 33.9375 56.775 33.9375 70.375 C4.39179874 82.68570886 -23.4193511 84.59798213 -54.25 75.9375 C-54.94528809 75.74454346 -55.64057617 75.55158691 -56.35693359 75.3527832 C-60.88577788 73.995679 -64.50475168 72.50767317 -68.0625 69.375 C-68.53828002 66.19235886 -68.63506658 63.82227339 -68.4296875 60.671875 C-68.39900177 59.83408508 -68.36831604 58.99629517 -68.33670044 58.13311768 C-68.23226414 55.46162893 -68.08547948 52.79439616 -67.9375 50.125 C-67.85917924 48.31261883 -67.78362549 46.50011582 -67.7109375 44.6875 C-67.52685046 40.24794889 -67.30476858 35.81174108 -67.0625 31.375 C-72.3425 30.385 -77.6225 29.395 -83.0625 28.375 C-84.28774658 39.17248547 -85.28267096 49.94059834 -85.4375 60.8125 C-85.46328125 61.68092529 -85.4890625 62.54935059 -85.515625 63.4440918 C-85.53344892 69.12379504 -84.55541618 71.90876132 -81.0625 76.375 C-81.0625 77.035 -81.0625 77.695 -81.0625 78.375 C-83.5 78 -83.5 78 -86.0625 77.375 C-86.5575 76.385 -86.5575 76.385 -87.0625 75.375 C-88.0525 77.685 -89.0425 79.995 -90.0625 82.375 C-90.7225 82.375 -91.3825 82.375 -92.0625 82.375 C-92.0625 80.065 -92.0625 77.755 -92.0625 75.375 C-92.825625 75.87 -93.58875 76.365 -94.375 76.875 C-97.0625 78.375 -97.0625 78.375 -100.0625 78.375 C-99.58820343 74.10633091 -97.02728822 72.26566852 -94.0625 69.375 C-92.94165112 66.31851384 -92.94165112 66.31851384 -92.5625 62.75 C-92.0625 59.375 -92.0625 59.375 -91.0625 58.375 C-90.67580271 55.83125687 -90.34790421 53.30561462 -90.0625 50.75 C-89.97564941 49.99468994 -89.88879883 49.23937988 -89.79931641 48.46118164 C-88.98200469 41.11227661 -88.47082954 33.75716822 -88.0625 26.375 C-88.74352783 26.25906494 -89.42455566 26.14312988 -90.1262207 26.02368164 C-93.20956773 25.49738484 -96.29228486 24.96748493 -99.375 24.4375 C-100.44685547 24.25509766 -101.51871094 24.07269531 -102.62304688 23.88476562 C-103.65107422 23.70751953 -104.67910156 23.53027344 -105.73828125 23.34765625 C-106.68614502 23.18531494 -107.63400879 23.02297363 -108.6105957 22.85571289 C-111.0625 22.375 -111.0625 22.375 -114.0625 21.375 C-114.0625 20.715 -114.0625 20.055 -114.0625 19.375 C-113.35158203 19.20484375 -112.64066406 19.0346875 -111.90820312 18.859375 C-97.46107696 15.39722112 -83.03104677 11.87922395 -68.625 8.25 C-58.48852228 5.69704066 -48.33970344 3.22759202 -38.1328125 0.96972656 C-32.56855254 -0.26223671 -27.06801477 -1.63574527 -21.59765625 -3.2421875 C-14.56535905 -4.30407521 -6.82221876 -1.53718567 0 0 Z " fill="#0E0E11" transform="translate(137.0625,86.625)"/>
<path d="M0 0 C7.82328004 0.61211087 15.11774692 2.41642944 22.6875 4.4375 C23.88439453 4.75009766 25.08128906 5.06269531 26.31445312 5.38476562 C35.22799201 7.73095588 35.22799201 7.73095588 39.10693359 9.08276367 C48.45677239 12.04709653 57.49827399 8.80760247 66.5625 6.125 C89.08315086 -0.3817322 89.08315086 -0.3817322 95 0 C95.33034341 6.08060309 95.62061352 12.16185451 95.87548828 18.24609375 C95.98631807 20.69738794 96.12836261 23.14456562 96.27734375 25.59375 C96.33019531 26.9034375 96.38304687 28.213125 96.4375 29.5625 C96.49808594 30.71878906 96.55867188 31.87507813 96.62109375 33.06640625 C96 36 96 36 93.03515625 38.27734375 C92.03355469 38.84582031 91.03195313 39.41429687 90 40 C89.505 40.99 89.505 40.99 89 42 C67.83525316 51.77138779 41.19633943 51.12042539 19 46 C18.27022949 45.85401367 17.54045898 45.70802734 16.78857422 45.55761719 C14.83486459 45.13850027 12.91256698 44.57855671 11 44 C10.505 42.515 10.505 42.515 10 41 C7.70972258 39.79056185 7.70972258 39.79056185 5 38.875 C0.06726457 37.06726457 0.06726457 37.06726457 -1 36 C-1.6020334 24.03015945 -0.64923935 11.95049345 0 0 Z " fill="#0D0D10" transform="translate(73,119)"/>
<path d="M0 0 C1.23556641 0.01740234 1.23556641 0.01740234 2.49609375 0.03515625 C3.32238281 0.04417969 4.14867188 0.05320312 5 0.0625 C5.63808594 0.07410156 6.27617188 0.08570312 6.93359375 0.09765625 C7.92359375 2.07765625 7.92359375 2.07765625 8.93359375 4.09765625 C6.1786816 6.8525684 4.48665616 6.39574252 0.62109375 6.53515625 C-8.42769214 6.981489 -17.30161539 8.32717518 -26.25244141 9.67724609 C-31.12430765 10.4051095 -36.00190138 11.09272655 -40.87890625 11.78515625 C-42.6562749 12.03888816 -44.43362105 12.29277775 -46.2109375 12.546875 C-47.48324219 12.72863281 -48.75554687 12.91039063 -50.06640625 13.09765625 C-40.55434261 16.75053846 -30.92791325 19.66751144 -20.88671875 21.45703125 C-17.8105541 22.15577225 -14.87181736 23.0998375 -11.87304688 24.07128906 C0.7159556 28.07588472 9.23075134 26.48883263 21.67480469 22.61523438 C28.56747775 20.4697147 35.49938524 18.56172602 42.49609375 16.78515625 C43.47022217 16.53096924 44.44435059 16.27678223 45.44799805 16.01489258 C51.78616891 14.42616331 58.36142089 12.88536828 64.93359375 13.09765625 C65.92359375 14.08765625 65.92359375 14.08765625 66.93359375 15.09765625 C65.35129315 15.43585791 63.7677 15.76801564 62.18359375 16.09765625 C61.301875 16.28328125 60.42015625 16.46890625 59.51171875 16.66015625 C56.93359375 17.09765625 56.93359375 17.09765625 52.93359375 17.09765625 C52.93359375 30.29765625 52.93359375 43.49765625 52.93359375 57.09765625 C50.95359375 58.08765625 48.97359375 59.07765625 46.93359375 60.09765625 C45.44859375 59.60265625 45.44859375 59.60265625 43.93359375 59.09765625 C45.89741382 57.59206086 47.71622741 56.20633942 49.93359375 55.09765625 C49.93359375 43.21765625 49.93359375 31.33765625 49.93359375 19.09765625 C36.40621371 22.20991903 36.40621371 22.20991903 22.9921875 25.765625 C22.03006348 26.03938965 21.06793945 26.3131543 20.07666016 26.59521484 C18.23836921 27.12447266 16.40314997 27.66456305 14.57177734 28.21728516 C2.95641255 31.55568874 -5.91147992 29.68666297 -17.37890625 26.28515625 C-19.85338098 25.56759751 -22.32863892 24.85273396 -24.8046875 24.140625 C-25.88790283 23.8211792 -26.97111816 23.5017334 -28.0871582 23.17260742 C-33.70620534 21.65468212 -39.39499848 20.40644266 -45.06640625 19.09765625 C-45.06640625 30.97765625 -45.06640625 42.85765625 -45.06640625 55.09765625 C-41.10640625 56.74765625 -37.14640625 58.39765625 -33.06640625 60.09765625 C-33.56140625 61.08765625 -33.56140625 61.08765625 -34.06640625 62.09765625 C-35.44443386 61.8649227 -36.81878484 61.61040226 -38.19140625 61.34765625 C-38.95710938 61.2084375 -39.7228125 61.06921875 -40.51171875 60.92578125 C-44.03532606 59.78357215 -46.25216453 58.54715996 -49.06640625 56.09765625 C-49.54218627 52.91501511 -49.63897283 50.54492964 -49.43359375 47.39453125 C-49.40290802 46.55674133 -49.37222229 45.71895142 -49.34060669 44.85577393 C-49.23617039 42.18428518 -49.08938573 39.51705241 -48.94140625 36.84765625 C-48.86308549 35.03527508 -48.78753174 33.22277207 -48.71484375 31.41015625 C-48.53075671 26.97060514 -48.30867483 22.53439733 -48.06640625 18.09765625 C-53.34640625 17.10765625 -58.62640625 16.11765625 -64.06640625 15.09765625 C-65.29165283 25.89514172 -66.28657721 36.66325459 -66.44140625 47.53515625 C-66.4671875 48.40358154 -66.49296875 49.27200684 -66.51953125 50.16674805 C-66.53735517 55.84645129 -65.55932243 58.63141757 -62.06640625 63.09765625 C-62.06640625 63.75765625 -62.06640625 64.41765625 -62.06640625 65.09765625 C-64.50390625 64.72265625 -64.50390625 64.72265625 -67.06640625 64.09765625 C-67.39640625 63.43765625 -67.72640625 62.77765625 -68.06640625 62.09765625 C-69.05640625 64.40765625 -70.04640625 66.71765625 -71.06640625 69.09765625 C-71.72640625 69.09765625 -72.38640625 69.09765625 -73.06640625 69.09765625 C-73.06640625 66.78765625 -73.06640625 64.47765625 -73.06640625 62.09765625 C-73.82953125 62.59265625 -74.59265625 63.08765625 -75.37890625 63.59765625 C-78.06640625 65.09765625 -78.06640625 65.09765625 -81.06640625 65.09765625 C-80.59210968 60.82898716 -78.03119447 58.98832477 -75.06640625 56.09765625 C-73.94555737 53.04117009 -73.94555737 53.04117009 -73.56640625 49.47265625 C-73.06640625 46.09765625 -73.06640625 46.09765625 -72.06640625 45.09765625 C-71.67970896 42.55391312 -71.35181046 40.02827087 -71.06640625 37.47265625 C-70.97955566 36.71734619 -70.89270508 35.96203613 -70.80322266 35.18383789 C-69.98591094 27.83493286 -69.47473579 20.47982447 -69.06640625 13.09765625 C-69.72640625 12.76765625 -70.38640625 12.43765625 -71.06640625 12.09765625 C-66.81688932 10.08472718 -62.75065619 9.65159037 -58.12890625 9.28515625 C-47.99860015 8.35784127 -38.0223905 6.67986414 -28.00219727 4.94995117 C-20.58311026 3.67062824 -13.1747086 2.52360007 -5.71020508 1.54492188 C-3.06628835 1.0976363 -2.52813654 0.11947715 0 0 Z " fill="#1C1E2F" transform="translate(118.06640625,99.90234375)"/>
<path d="M0 0 C7.17063089 0.45538513 13.64532738 1.82642283 20.5 3.9375 C26.51336143 5.76282611 32.4396621 7.32695051 38.61572266 8.49291992 C41.60933758 9.12959187 44.46091818 10.04260063 47.36254883 11.0065918 C59.82540437 15.09635578 68.42741485 13.35062976 80.74121094 9.51757812 C87.633884 7.37205845 94.56579149 5.46406977 101.5625 3.6875 C102.53662842 3.43331299 103.51075684 3.17912598 104.5144043 2.91723633 C110.85257516 1.32850706 117.42782714 -0.21228797 124 0 C124.99 0.99 124.99 0.99 126 2 C124.4176994 2.33820166 122.83410625 2.67035939 121.25 3 C120.36828125 3.185625 119.4865625 3.37125 118.578125 3.5625 C116 4 116 4 112 4 C112 17.2 112 30.4 112 44 C110.02 44.99 108.04 45.98 106 47 C104.515 46.505 104.515 46.505 103 46 C104.96382007 44.49440461 106.78263366 43.10868317 109 42 C109 30.12 109 18.24 109 6 C95.47261996 9.11226278 95.47261996 9.11226278 82.05859375 12.66796875 C80.61540771 13.07861572 80.61540771 13.07861572 79.14306641 13.49755859 C77.30477546 14.02681641 75.46955622 14.5669068 73.63818359 15.11962891 C62.0228188 18.45803249 53.15492633 16.58900672 41.6875 13.1875 C39.21302527 12.46994126 36.73776733 11.75507771 34.26171875 11.04296875 C33.17850342 10.72352295 32.09528809 10.40407715 30.97924805 10.07495117 C25.36020091 8.55702587 19.67140777 7.30878641 14 6 C14 17.88 14 29.76 14 42 C17.96 43.65 21.92 45.3 26 47 C25.67 47.66 25.34 48.32 25 49 C23.62197239 48.76726645 22.24762141 48.51274601 20.875 48.25 C20.10929687 48.11078125 19.34359375 47.9715625 18.5546875 47.828125 C15.03108019 46.6859159 12.81424172 45.44950371 10 43 C9.52421998 39.81735886 9.42743342 37.44727339 9.6328125 34.296875 C9.66349823 33.45908508 9.69418396 32.62129517 9.72579956 31.75811768 C9.83023586 29.08662893 9.97702052 26.41939616 10.125 23.75 C10.20332076 21.93761883 10.27887451 20.12511582 10.3515625 18.3125 C10.53564954 13.87294889 10.75773142 9.43674108 11 5 C7.37 4.34 3.74 3.68 0 3 C0 2.01 0 1.02 0 0 Z " fill="#2C2C2F" transform="translate(59,113)"/>
<path d="M0 0 C1.32 0.66 2.64 1.32 4 2 C2.68 2.33 1.36 2.66 0 3 C-1.22524658 13.79748547 -2.22017096 24.56559834 -2.375 35.4375 C-2.40078125 36.30592529 -2.4265625 37.17435059 -2.453125 38.0690918 C-2.47094892 43.74879504 -1.49291618 46.53376132 2 51 C2 51.66 2 52.32 2 53 C-0.4375 52.625 -0.4375 52.625 -3 52 C-3.33 51.34 -3.66 50.68 -4 50 C-4.99 52.31 -5.98 54.62 -7 57 C-7.66 57 -8.32 57 -9 57 C-9 54.69 -9 52.38 -9 50 C-9.763125 50.495 -10.52625 50.99 -11.3125 51.5 C-14 53 -14 53 -17 53 C-16.52570343 48.73133091 -13.96478822 46.89066852 -11 44 C-9.87915112 40.94351384 -9.87915112 40.94351384 -9.5 37.375 C-9 34 -9 34 -8 33 C-7.62702842 30.63279542 -7.30919395 28.28082438 -7.02734375 25.90234375 C-6.93997452 25.19348526 -6.85260529 24.48462677 -6.7625885 23.75428772 C-6.48352594 21.48249737 -6.21045303 19.21003171 -5.9375 16.9375 C-5.749742 15.40034257 -5.56159603 13.86323247 -5.37304688 12.32617188 C-4.91085522 8.55131649 -4.45403531 4.77584474 -4 1 C-3.01 1 -2.02 1 -1 1 C-0.67 0.67 -0.34 0.34 0 0 Z " fill="#212334" transform="translate(54,112)"/>
<path d="M0 0 C0.93706787 0.19988525 1.87413574 0.39977051 2.83959961 0.60571289 C6.25300465 1.33801552 9.65772279 2.10362161 13.0625 2.875 C15.47647533 3.41705499 17.89053708 3.95872533 20.3046875 4.5 C21.45807617 4.75910156 22.61146484 5.01820312 23.79980469 5.28515625 C29.52458278 6.56392877 35.26019795 7.79050382 41 9 C36.06805067 12.28796622 30.88799735 10.55715164 25.26904297 9.47314453 C22.48308687 8.86931398 19.7100176 8.22519933 16.9375 7.5625 C15.07165184 7.12614273 13.20576683 6.68994301 11.33984375 6.25390625 C8.70560401 5.63616517 6.071829 5.0171899 3.44042969 4.38745117 C2.64926758 4.20287354 1.85810547 4.0182959 1.04296875 3.828125 C0.00112427 3.5811084 0.00112427 3.5811084 -1.06176758 3.32910156 C-5.66983205 2.54667671 -10.10257052 3.80567088 -14.58984375 4.77734375 C-15.56800049 4.98484253 -15.56800049 4.98484253 -16.56591797 5.1965332 C-18.48594715 5.60857175 -20.40131959 6.04213077 -22.31640625 6.4765625 C-26.15952518 7.02266848 -29.20579955 6.73247113 -33 6 C-28.30910753 3.45432862 -23.35487886 2.5002865 -18.1875 1.3125 C-16.72860352 0.95575195 -16.72860352 0.95575195 -15.24023438 0.59179688 C-9.76022483 -0.67339152 -5.56732794 -1.2685812 0 0 Z " fill="#2E2E31" transform="translate(125,84)"/>
<path d="M0 0 C-3.83236045 2.17267679 -7.98117488 3.28833338 -12.1875 4.5 C-12.94764404 4.72067139 -13.70778809 4.94134277 -14.4909668 5.16870117 C-27.83130674 9 -27.83130674 9 -34 9 C-34 9.66 -34 10.32 -34 11 C-33.01 11.33 -32.02 11.66 -31 12 C-36.79141983 13.01603857 -40.4584498 12.96263236 -46 11 C-46 10.34 -46 9.68 -46 9 C-44.77651855 8.7054895 -44.77651855 8.7054895 -43.52832031 8.4050293 C-40.44179467 7.66179078 -37.35538313 6.9180806 -34.26904297 6.17407227 C-32.30054069 5.69967988 -30.3319126 5.22580962 -28.36328125 4.75195312 C-27.09355469 4.44580078 -25.82382812 4.13964844 -24.515625 3.82421875 C-23.25298828 3.52177246 -21.99035156 3.21932617 -20.68945312 2.90771484 C-18.30121974 2.32013863 -15.91896977 1.70743741 -13.54492188 1.06494141 C-12.49369141 0.78183105 -11.44246094 0.4987207 -10.359375 0.20703125 C-9.44124023 -0.04973389 -8.52310547 -0.30649902 -7.57714844 -0.57104492 C-4.75091239 -1.04145954 -2.75094315 -0.7311652 0 0 Z " fill="#444447" transform="translate(69,97)"/>
<path d="M0 0 C1.31291016 0.28037109 1.31291016 0.28037109 2.65234375 0.56640625 C9.42452385 2.10444002 16.18310327 3.69834023 22.9375 5.3125 C22.9375 5.9725 22.9375 6.6325 22.9375 7.3125 C19.02388031 8.18105207 15.10622948 9.02982779 11.1875 9.875 C10.07632813 10.12185547 8.96515625 10.36871094 7.8203125 10.62304688 C6.75039062 10.85185547 5.68046875 11.08066406 4.578125 11.31640625 C3.59360352 11.53111572 2.60908203 11.7458252 1.59472656 11.96704102 C-1.00585061 12.30513516 -2.60541358 12.15106995 -5.0625 11.3125 C-2.12280946 9.35270631 -0.51227414 8.82929931 2.875 8.1875 C3.72964844 8.01992187 4.58429688 7.85234375 5.46484375 7.6796875 C7.9375 7.3125 7.9375 7.3125 11.9375 7.3125 C11.9375 6.6525 11.9375 5.9925 11.9375 5.3125 C10.803125 5.18875 9.66875 5.065 8.5 4.9375 C3.9576816 4.36159892 -0.70986325 3.7697285 -5.0625 2.3125 C-5.3925 1.6525 -5.7225 0.9925 -6.0625 0.3125 C-3.55179895 -0.94285053 -2.71739267 -0.58263136 0 0 Z " fill="#313134" transform="translate(194.0625,100.6875)"/>
<path d="M0 0 C1.32 0.66 2.64 1.32 4 2 C2.68 2.33 1.36 2.66 0 3 C-0.12846313 4.18758911 -0.12846313 4.18758911 -0.25952148 5.39916992 C-0.64986358 8.99553585 -1.04364553 12.5915171 -1.4375 16.1875 C-1.57220703 17.43337891 -1.70691406 18.67925781 -1.84570312 19.96289062 C-1.97783203 21.16494141 -2.10996094 22.36699219 -2.24609375 23.60546875 C-2.36654053 24.71043701 -2.4869873 25.81540527 -2.61108398 26.95385742 C-2.95833402 29.67365573 -3.42233147 32.32092597 -4 35 C-4.99 34.34 -5.98 33.68 -7 33 C-7.11373935 30.33481033 -7.04611635 27.95233581 -6.8125 25.3125 C-6.75715088 24.56170166 -6.70180176 23.81090332 -6.64477539 23.03735352 C-6.06124863 15.65298898 -5.09805942 8.32394974 -4 1 C-3.01 1 -2.02 1 -1 1 C-0.67 0.67 -0.34 0.34 0 0 Z " fill="#15172A" transform="translate(54,112)"/>
<path d="M0 0 C7.98947999 0.45200077 15.3285067 2.22958487 23 4.4375 C24.13050781 4.75009766 25.26101562 5.06269531 26.42578125 5.38476562 C34.73948543 7.73948543 34.73948543 7.73948543 37 10 C28.25903915 9.58866067 20.38647775 7.36346191 12 5 C12 11.6 12 18.2 12 25 C11.67 25 11.34 25 11 25 C11 18.4 11 11.8 11 5 C7.37 4.34 3.74 3.68 0 3 C0 2.01 0 1.02 0 0 Z " fill="#3E3E42" transform="translate(59,113)"/>
<path d="M0 0 C-0.33 0.66 -0.66 1.32 -1 2 C-4.96144388 3.21032425 -9.06272624 3.89004022 -13.125 4.6875 C-14.25421875 4.92533203 -15.3834375 5.16316406 -16.546875 5.40820312 C-22.36440178 6.56966485 -27.19320768 7.38858077 -33 6 C-28.30910753 3.45432862 -23.35487886 2.5002865 -18.1875 1.3125 C-16.72860352 0.95575195 -16.72860352 0.95575195 -15.24023438 0.59179688 C-9.75917603 -0.67363366 -5.50512746 -1.26687034 0 0 Z " fill="#434345" transform="translate(125,84)"/>
<path d="M0 0 C0.33 0 0.66 0 1 0 C1 12.87 1 25.74 1 39 C-0.98 39.99 -2.96 40.98 -5 42 C-5.99 41.67 -6.98 41.34 -8 41 C-6.03617993 39.49440461 -4.21736634 38.10868317 -2 37 C-0.29357027 29.25925436 -0.69512415 20.7642118 -0.4375 12.875 C-0.37272461 11.01101562 -0.37272461 11.01101562 -0.30664062 9.109375 C-0.20153545 6.07300329 -0.09938657 3.03656335 0 0 Z " fill="#464648" transform="translate(170,118)"/>
<path d="M0 0 C0.33 0 0.66 0 1 0 C1.33 4.62 1.66 9.24 2 14 C6.29 15.65 10.58 17.3 15 19 C14.67 19.66 14.34 20.32 14 21 C2.81777108 19.11144578 2.81777108 19.11144578 -1 15 C-1.72354883 9.87131564 -1.6419159 4.92574771 0 0 Z " fill="#3E3E41" transform="translate(70,141)"/>
<path d="M0 0 C1.23556641 0.01740234 1.23556641 0.01740234 2.49609375 0.03515625 C3.32238281 0.04417969 4.14867188 0.05320312 5 0.0625 C5.63808594 0.07410156 6.27617188 0.08570312 6.93359375 0.09765625 C7.59359375 1.41765625 8.25359375 2.73765625 8.93359375 4.09765625 C7.93359375 5.09765625 7.93359375 5.09765625 5.4296875 5.1953125 C3.91568359 5.17791016 3.91568359 5.17791016 2.37109375 5.16015625 C1.35917969 5.15113281 0.34726563 5.14210938 -0.6953125 5.1328125 C-1.47777344 5.12121094 -2.26023437 5.10960938 -3.06640625 5.09765625 C-3.06640625 0.14491523 -3.06640625 0.14491523 0 0 Z " fill="#363639" transform="translate(118.06640625,99.90234375)"/>
<path d="M0 0 C0.66 0.66 1.32 1.32 2 2 C-4.32589627 3.13955862 -10.52278338 3.1142637 -16.9375 3.0625 C-18.53561523 3.05573242 -18.53561523 3.05573242 -20.16601562 3.04882812 C-22.77740291 3.03711787 -25.38867124 3.02071724 -28 3 C-28 2.67 -28 2.34 -28 2 C-7.62068966 -0.89655172 -7.62068966 -0.89655172 0 0 Z " fill="#454548" transform="translate(137,165)"/>
<path d="M0 0 C0.88429687 0.18949219 1.76859375 0.37898438 2.6796875 0.57421875 C4.07574219 0.87779297 4.07574219 0.87779297 5.5 1.1875 C7.37431311 1.56591823 9.24928408 1.94109756 11.125 2.3125 C13.3125 2.75 13.3125 2.75 15.5 3.1875 C10.32774078 6.63567282 4.35629824 4.41938863 -1.5 3.25 C-3.75 2.78515625 -3.75 2.78515625 -5.5 2.1875 C-5.83 1.5275 -6.16 0.8675 -6.5 0.1875 C-3.90035967 -1.11232016 -2.81394409 -0.6188896 0 0 Z " fill="#3A3A3D" transform="translate(194.5,100.8125)"/>
<path d="M0 0 C0 1.32 0 2.64 0 4 C0.99 4.33 1.98 4.66 3 5 C-2.79141983 6.01603857 -6.4584498 5.96263236 -12 4 C-12 3.34 -12 2.68 -12 2 C-10.7625 1.67 -9.525 1.34 -8.25 1 C-7.55390625 0.814375 -6.8578125 0.62875 -6.140625 0.4375 C-4 0 -4 0 0 0 Z " fill="#404042" transform="translate(35,104)"/>
<path d="M0 0 C0.99 0.33 1.98 0.66 3 1 C3.02725341 2.7290774 3.04650987 4.45828176 3.0625 6.1875 C3.07410156 7.15042969 3.08570313 8.11335937 3.09765625 9.10546875 C3.00486622 11.85576513 2.62111685 14.32479591 2 17 C1.01 16.34 0.02 15.68 -1 15 C-0.67 10.05 -0.34 5.1 0 0 Z " fill="#131427" transform="translate(48,130)"/>
<path d="M0 0 C0 0.33 0 0.66 0 1 C-2.58067563 1.69918305 -5.16372847 2.38461049 -7.75 3.0625 C-8.47960937 3.26166016 -9.20921875 3.46082031 -9.9609375 3.66601562 C-16.39766744 5.33371384 -16.39766744 5.33371384 -20 4 C-20.33 3.34 -20.66 2.68 -21 2 C-18.62733173 1.46569684 -16.25293117 0.94737476 -13.875 0.4375 C-12.87726563 0.21030273 -12.87726563 0.21030273 -11.859375 -0.02148438 C-7.59513257 -0.92031979 -4.24075907 -0.9974371 0 0 Z " fill="#2D2D30" transform="translate(185,114)"/>
<path d="M0 0 C-4.81934515 3.21289677 -9.73172489 5.1989715 -15.5625 4.6875 C-16.366875 4.460625 -17.17125 4.23375 -18 4 C-6.11698745 -2.17054393 -6.11698745 -2.17054393 0 0 Z " fill="#343437" transform="translate(162,160)"/>
<path d="M0 0 C-2.80452702 1.51699416 -5.3857302 2.45308563 -8.5 3.125 C-9.2528125 3.29257813 -10.005625 3.46015625 -10.78125 3.6328125 C-13 4 -13 4 -17 4 C-16.67 3.01 -16.34 2.02 -16 1 C-10.68902698 -1.23379981 -5.52901224 -1.17638558 0 0 Z " fill="#303033" transform="translate(52,102)"/>
<path d="M0 0 C6.68993219 0.53951066 12.63460728 1.88706171 19 4 C19 4.33 19 4.66 19 5 C12.23784552 4.59060025 6.32837252 3.43046191 0 1 C0 0.67 0 0.34 0 0 Z " fill="#37373A" transform="translate(77,118)"/>
<path d="M0 0 C1.00289062 0.10183594 2.00578125 0.20367187 3.0390625 0.30859375 C3.80992187 0.39238281 4.58078125 0.47617188 5.375 0.5625 C5.705 1.5525 6.035 2.5425 6.375 3.5625 C4.79090006 3.44762252 3.20771037 3.32015492 1.625 3.1875 C0.74328125 3.11789063 -0.1384375 3.04828125 -1.046875 2.9765625 C-3.61566382 2.56399945 -5.38341015 1.85089043 -7.625 0.5625 C-4.89657939 -0.80171031 -3.01546682 -0.31557211 0 0 Z " fill="#2B2B2E" transform="translate(129.625,85.4375)"/>
<path d="M0 0 C2.36508006 0.30344423 4.00623039 1.09937233 6.0703125 2.265625 C-3.33971028 3.59819903 -3.33971028 3.59819903 -7.9296875 2.265625 C-5.34123902 -0.32282348 -3.53085083 0.02685058 0 0 Z " fill="#353538" transform="translate(103.9296875,163.734375)"/>
<path d="M0 0 C-1.625 5.75 -1.625 5.75 -5 8 C-5 6.02 -5 4.04 -5 2 C-5.66 1.67 -6.32 1.34 -7 1 C-4.53721199 -0.231394 -2.7204945 -0.07159196 0 0 Z " fill="#393A49" transform="translate(54,111)"/>
<path d="M0 0 C-3.53411321 2.12046792 -6.94393835 2.53199289 -11 3 C-11 2.34 -11 1.68 -11 1 C-6.87831311 -0.62950412 -4.29299643 -1.26264601 0 0 Z " fill="#313134" transform="translate(69,97)"/>
<path d="M0 0 C1.32 0 2.64 0 4 0 C4 1.32 4 2.64 4 4 C4.99 4.33 5.98 4.66 7 5 C4.36 5.33 1.72 5.66 -1 6 C-1 5.34 -1 4.68 -1 4 C0.32 4 1.64 4 3 4 C3 3.01 3 2.02 3 1 C2.01 0.67 1.02 0.34 0 0 Z " fill="#474749" transform="translate(31,104)"/>
<path d="M0 0 C-0.33 0.66 -0.66 1.32 -1 2 C-4.3 1.67 -7.6 1.34 -11 1 C-6.46780033 -1.26609984 -4.82227075 -0.92735976 0 0 Z " fill="#48484B" transform="translate(125,84)"/>
<path d="M0 0 C0.99 0.33 1.98 0.66 3 1 C3 3.31 3 5.62 3 8 C2.01 8 1.02 8 0 8 C0 5.36 0 2.72 0 0 Z " fill="#07091C" transform="translate(48,130)"/>
<path d="M0 0 C2.72869407 0.03287583 5.2966618 0.56397771 8 1 C4.1496895 3.56687367 2.41430237 2.83288724 -2 2 C-1.34 1.34 -0.68 0.68 0 0 Z " fill="#414144" transform="translate(166,94)"/>
<path d="M0 0 C-0.33 0.66 -0.66 1.32 -1 2 C-3.875 2.75 -3.875 2.75 -7 3 C-7.99 2.34 -8.98 1.68 -10 1 C-6.78548731 -0.60725635 -3.56387464 -0.05748185 0 0 Z " fill="#2B2B2E" transform="translate(119,85)"/>
<path d="M0 0 C2.64 0.33 5.28 0.66 8 1 C4.77208445 3.1519437 3.71599191 3.20086443 0 3 C0 2.01 0 1.02 0 0 Z " fill="#444447" transform="translate(158,92)"/>
<path d="M0 0 C-3.8503105 2.56687367 -5.58569763 1.83288724 -10 1 C-6.42181037 -1.33958553 -4.07775191 -0.9267618 0 0 Z " fill="#424245" transform="translate(85,93)"/>
<path d="M0 0 C3.625 0.375 3.625 0.375 7 1 C6.67 1.66 6.34 2.32 6 3 C3.36 2.67 0.72 2.34 -2 2 C-1.34 1.34 -0.68 0.68 0 0 Z " fill="#252528" transform="translate(151,91)"/>
<path d="M0 0 C0 2.31 0 4.62 0 7 C-0.99 7.33 -1.98 7.66 -3 8 C-3 5.69 -3 3.38 -3 1 C-1 0 -1 0 0 0 Z " fill="#161728" transform="translate(48,161)"/>
<path d="M0 0 C0.928125 0.20625 1.85625 0.4125 2.8125 0.625 C-0.1875 2.625 -0.1875 2.625 -3.375 2.25 C-4.303125 2.04375 -5.23125 1.8375 -6.1875 1.625 C-3.1875 -0.375 -3.1875 -0.375 0 0 Z " fill="#3D3D40" transform="translate(74.1875,94.375)"/>
<path d="M0 0 C2.64 0.33 5.28 0.66 8 1 C6 3 6 3 3.375 3.125 C2.59125 3.08375 1.8075 3.0425 1 3 C0.67 2.01 0.34 1.02 0 0 Z " fill="#3D3D40" transform="translate(136,87)"/>
</svg>
